<svg width="28" height="28" viewBox="0 0 28 28" fill="none" xmlns="http://www.w3.org/2000/svg">
<path d="M6.30813 6.24809C6.79978 5.7599 6.80008 4.9648 6.30879 4.47624L5.83247 4.00257C5.3447 3.5175 4.5564 3.5186 4.06998 4.00502V4.00502C3.5826 4.4924 3.5826 5.2826 4.06998 5.76998L4.54498 6.24498C5.0315 6.7315 5.81989 6.7329 6.30813 6.24809V6.24809ZM0 13.6875C0 12.9971 0.559644 12.4375 1.25 12.4375H2.5C3.19036 12.4375 3.75 12.9971 3.75 13.6875V13.6875C3.75 14.3779 3.19036 14.9375 2.5 14.9375H1.25C0.559644 14.9375 0 14.3779 0 13.6875V13.6875ZM12.5 1.25C12.5 0.559644 13.0596 0 13.75 0V0C14.4404 0 15 0.559644 15 1.25V2.4375C15 3.12786 14.4404 3.6875 13.75 3.6875V3.6875C13.0596 3.6875 12.5 3.12786 12.5 2.4375V1.25ZM21.6706 3.99812C22.1563 3.51241 22.9438 3.51227 23.4297 3.99781V3.99781C23.9158 4.4836 23.916 5.27154 23.43 5.7575L22.9525 6.235C22.4665 6.72096 21.6786 6.72082 21.1928 6.23469V6.23469C20.7073 5.7488 20.7074 4.96134 21.1931 4.47562L21.6706 3.99812ZM21.175 21.1375C20.6914 21.6211 20.6903 22.4049 21.1726 22.8899L21.6587 23.3788C22.1437 23.8665 22.9324 23.8676 23.4188 23.3813V23.3813C23.9051 22.8949 23.904 22.1062 23.4163 21.6212L22.9274 21.1351C22.4424 20.6528 21.6586 20.6539 21.175 21.1375V21.1375ZM23.75 13.6875C23.75 12.9971 24.3096 12.4375 25 12.4375H26.25C26.9404 12.4375 27.5 12.9971 27.5 13.6875V13.6875C27.5 14.3779 26.9404 14.9375 26.25 14.9375H25C24.3096 14.9375 23.75 14.3779 23.75 13.6875V13.6875ZM13.75 6.1875C9.6125 6.1875 6.25 9.55 6.25 13.6875C6.25 17.825 9.6125 21.1875 13.75 21.1875C17.8875 21.1875 21.25 17.825 21.25 13.6875C21.25 9.55 17.8875 6.1875 13.75 6.1875ZM13.75 18.6875C10.9875 18.6875 8.75 16.45 8.75 13.6875C8.75 10.925 10.9875 8.6875 13.75 8.6875C16.5125 8.6875 18.75 10.925 18.75 13.6875C18.75 16.45 16.5125 18.6875 13.75 18.6875ZM12.5 24.9375C12.5 24.2471 13.0596 23.6875 13.75 23.6875V23.6875C14.4404 23.6875 15 24.2471 15 24.9375V26.125C15 26.8154 14.4404 27.375 13.75 27.375V27.375C13.0596 27.375 12.5 26.8154 12.5 26.125V24.9375ZM4.06384 21.6063C3.57946 22.0934 3.58055 22.8806 4.0663 23.3663V23.3663C4.55395 23.854 5.34494 23.8529 5.83124 23.3638L6.31116 22.8812C6.79554 22.3941 6.79445 21.6069 6.30871 21.1212V21.1212C5.82105 20.6335 5.03006 20.6346 4.54376 21.1237L4.06384 21.6063Z" fill="#434343"/>
</svg>
